{"title":"Sesir profesora Koste Vujica 2012  epizoda 1","uid":8187129,"size":285329186,"categoryP":"video","categoryS":"tv_shows","magnet":"?xt=urn:btih:11cb8f33c8e5eed89e5ce8cd7d9a0f35931950df&amp;dn=Sesir+profesora+Koste+Vujica+2012++epizoda+1&amp;tr=udp%3A%2F%2Ftracker.openbittorrent.com%3A80&amp;tr=udp%3A%2F%2Fopen.demonii.com%3A1337&amp;tr=udp%3A%2F%2Ftracker.coppersurfer.tk%3A6969&amp;tr=udp%3A%2F%2Fexodus.desync.com%3A6969","seeders":3,"leechers":0,"uploader":"Djuki1","files":-1,"time":1361746456,"description":"1. EPIZODA\n\nFormat                                   : AVI\nFormat/Info                              : Audio Video Interleave\nFile size                                : 272 MiB\nDuration                                 : 48mn 29s\nOverall bit rate                         : 785 Kbps\nWriting application                      : MEncoder SVN-r33883(20110719-gcc4.5.2)\nWriting library                          : VirtualDub build 34703/release\n\nVideo\nID                                       : 0\nFormat                                   : MPEG-4 Visual\nFormat profile                           : Advanced Simple@L5\nFormat settings, BVOP                    : 2\nFormat settings, QPel                    : No\nFormat settings, GMC                     : No warppoints\nFormat settings, Matrix                  : Default (H.263)\nMuxing mode                              : Packed bitstream\nCodec ID                                 : XVID\nCodec ID/Hint                            : XviD\nDuration                                 : 48mn 29s\nBit rate                                 : 647 Kbps\nWidth                                    : 856 pixels\nHeight                                   : 480 pixels\nDisplay aspect ratio                     : 16:9\nFrame rate                               : 25.000 fps\nColor space                              : YUV\nChroma subsampling                       : 4:2:0\nBit depth                                : 8 bits\nScan type                                : Progressive\nCompression mode                         : Lossy\nBits/(Pixel*Frame)                       : 0.063\nStream size                              : 224 MiB (82%)\nWriting library                          : XviD 64\n\nAudio\nID                                       : 1\nFormat                                   : MPEG Audio\nFormat version                           : Version 1\nFormat profile                           : Layer 3\nMode                                     : Joint stereo\nMode extension                           : MS Stereo\nCodec ID                                 : 55\nCodec ID/Hint                            : MP3\nDuration                                 : 48mn 29s\nBit rate mode                            : Constant\nBit rate                                 : 128 Kbps\nChannel(s)                               : 2 channels\nSampling rate                            : 44.1 KHz\nCompression mode                         : Lossy\nStream size                              : 44.4 MiB (16%)\nAlignment                                : Split accross interleaves\nInterleave, duration                     : 40 ms (1.00 video frame)\nInterleave, preload duration             : 500 ms","torrent":{"xt":"urn:btih:11cb8f33c8e5eed89e5ce8cd7d9a0f35931950df","amp;dn":"Sesir+profesora+Koste+Vujica+2012++epizoda+1","amp;tr":["udp%3A%2F%2Ftracker.openbittorrent.com%3A80","udp%3A%2F%2Fopen.demonii.com%3A1337","udp%3A%2F%2Ftracker.coppersurfer.tk%3A6969","udp%3A%2F%2Fexodus.desync.com%3A6969"],"infoHash":"11cb8f33c8e5eed89e5ce8cd7d9a0f35931950df","infoHashBuffer":{"type":"Buffer","data":[17,203,143,51,200,229,238,216,158,92,232,205,125,154,15,53,147,25,80,223]},"announce":[],"urlList":[]}}